<svg xmlns="http://www.w3.org/2000/svg" viewBox="0 0 24 24" width="512" height="512">
  <rect width="24" height="24" rx="4" fill="#0c4a6e" />
  <g fill="none" stroke="#ffffff" stroke-width="1.5" stroke-linecap="round" stroke-linejoin="round">
    <line x1="16.5" x2="7.5" y1="9.4" y2="14.6"/>
    <path d="M21 16V8a2 2 0 0 0-1-1.73l-7-4a2 2 0 0 0-2 0l-7 4A2 2 0 0 0 3 8v8a2 2 0 0 0 1 1.73l7 4a2 2 0 0 0 2 0l7-4A2 2 0 0 0 21 16z"/>
    <polyline points="3.29 7 12 12 20.71 7"/>
    <line x1="12" x2="12" y1="22" y2="12"/>
  </g>
</svg>
